<svg xmlns="http://www.w3.org/2000/svg" width="362" height="269" viewBox="0 0 362 269">
<rect width="100%" height="100%" fill="#000000"/>
<path d="M48 0V58H148V642H48V700H314Q451 700 527.5 630.5Q604 561 604 414V285Q604 138 527.5 69.0Q451 0 314 0ZM212 58H314Q424 58 482.0 111.0Q540 164 540 282V417Q540 536 482.0 588.5Q424 641 314 641H212Z" transform="translate(11.616,223.176) scale(0.258000, -0.258000)" fill="#ffffff"/>
<path d="M333 -14Q210 -14 137.0 58.5Q64 131 64 271V429Q64 569 137.0 641.5Q210 714 333 714Q456 714 529.0 641.5Q602 569 602 429V271Q602 131 529.0 58.5Q456 -14 333 -14ZM333 44Q431 44 484.5 103.0Q538 162 538 269V431Q538 538 484.5 597.0Q431 656 333 656Q236 656 182.0 597.0Q128 538 128 431V269Q128 162 182.0 103.0Q236 44 333 44ZM194 -84 147 -66 473 772 519 754Z" transform="translate(182.412,223.176) scale(0.258000, -0.258000)" fill="#ffffff"/>
</svg>
