<svg xmlns="http://www.w3.org/2000/svg" width="512" height="512" viewBox="0 0 512 512">
  <rect width="100%" height="100%" fill="#ffffff"/>
  <g transform="translate(256 256) scale(0.58 -0.58) translate(-333 -344)">
    <path d="M333 -14Q210 -14 137.0 58.5Q64 131 64 271V429Q64 569 137.0 641.5Q210 714 333 714Q456 714 529.0 641.5Q602 569 602 429V271Q602 131 529.0 58.5Q456 -14 333 -14ZM333 44Q431 44 484.5 103.0Q538 162 538 269V431Q538 538 484.5 597.0Q431 656 333 656Q236 656 182.0 597.0Q128 538 128 431V269Q128 162 182.0 103.0Q236 44 333 44ZM194 -84 147 -66 473 772 519 754Z" fill="#000000"/>
  </g>
</svg>
